<svg width="30" height="30" viewBox="0 0 30 30" fill="none" xmlns="http://www.w3.org/2000/svg">
<path d="M11.25 3.75H6.25C5.58696 3.75 4.95107 4.01339 4.48223 4.48223C4.01339 4.95107 3.75 5.58696 3.75 6.25V11.25C3.75 11.913 4.01339 12.5489 4.48223 13.0178C4.95107 13.4866 5.58696 13.75 6.25 13.75H11.25C11.913 13.75 12.5489 13.4866 13.0178 13.0178C13.4866 12.5489 13.75 11.913 13.75 11.25V6.25C13.75 5.58696 13.4866 4.95107 13.0178 4.48223C12.5489 4.01339 11.913 3.75 11.25 3.75Z" fill="#F4F4F4"/>
<path d="M23.75 3.75H18.75C18.087 3.75 17.4511 4.01339 16.9823 4.48223C16.5134 4.95107 16.25 5.58696 16.25 6.25V11.25C16.25 11.913 16.5134 12.5489 16.9823 13.0178C17.4511 13.4866 18.087 13.75 18.75 13.75H23.75C24.4131 13.75 25.049 13.4866 25.5178 13.0178C25.9866 12.5489 26.25 11.913 26.25 11.25V6.25C26.25 5.58696 25.9866 4.95107 25.5178 4.48223C25.049 4.01339 24.4131 3.75 23.75 3.75Z" fill="#F4F4F4"/>
<path d="M11.25 16.25H6.25C5.58696 16.25 4.95107 16.5134 4.48223 16.9822C4.01339 17.4511 3.75 18.087 3.75 18.75V23.75C3.75 24.413 4.01339 25.0489 4.48223 25.5178C4.95107 25.9866 5.58696 26.25 6.25 26.25H11.25C11.913 26.25 12.5489 25.9866 13.0178 25.5178C13.4866 25.0489 13.75 24.413 13.75 23.75V18.75C13.75 18.087 13.4866 17.4511 13.0178 16.9822C12.5489 16.5134 11.913 16.25 11.25 16.25Z" fill="#F4F4F4"/>
<path d="M23.75 16.25H18.75C18.087 16.25 17.4511 16.5134 16.9823 16.9822C16.5134 17.4511 16.25 18.087 16.25 18.75V23.75C16.25 24.413 16.5134 25.0489 16.9823 25.5178C17.4511 25.9866 18.087 26.25 18.75 26.25H23.75C24.4131 26.25 25.049 25.9866 25.5178 25.5178C25.9866 25.0489 26.25 24.413 26.25 23.75V18.75C26.25 18.087 25.9866 17.4511 25.5178 16.9822C25.049 16.5134 24.4131 16.25 23.75 16.25Z" fill="#F4F4F4"/>
</svg>
